<?xml version="1.0" encoding="UTF-8"?>
<svg width="166px" height="236px" viewBox="0 0 166 236" version="1.1" xmlns="http://www.w3.org/2000/svg" xmlns:xlink="http://www.w3.org/1999/xlink">
    <!-- Generator: Sketch 61.2 (89653) - https://sketch.com -->
    <title>peep-34</title>
    <desc>Created with Sketch.</desc>
    <g id="Introduction" stroke="none" stroke-width="1" fill="none" fill-rule="evenodd">
        <g id="variations-busts" transform="translate(-1124.000000, -1778.000000)">
            <g id="images" transform="translate(126.000000, 110.000000)">
                <g id="a-person/bust" transform="translate(1080.000000, 1782.000000) scale(-1, 1) translate(-1080.000000, -1782.000000) translate(960.000000, 1620.000000)">
                    <g id="body/Coffee" transform="translate(31.056338, 135.052838)" fill-rule="evenodd">
                        <path d="M83.2831268,0.670593346 C88.4982676,-3.30215812 101.591155,-5.08870215 107.157211,-1.26347319 C112.654817,2.5778184 113.254149,8.78971282 115.81598,14.5042021 C118.233092,13.3639672 122.224696,14.996973 122.925471,17.2406677 C123.794626,18.2988986 123.833662,21.2720393 124.433028,22.6946381 C150.512324,26.84746 154.471648,47.1875249 157.610662,70.2792352 C161.763338,93.7114309 171.19031,117.09248 167.097845,141.204589 C167.631085,141.976441 168.051507,142.726734 168.440239,143.617787 C169.371718,145.203337 168.17193,147.447666 166.293127,147.360801 C163.861225,147.147126 161.453408,146.855462 159.010099,146.76437 C152.236914,146.529055 145.457544,146.557111 138.681788,146.643229 L137.757845,146.655314 C103.610028,147.08055 69.4641127,147.918554 35.3148169,148.140794 C34.0759437,148.142586 33.4693944,147.031094 33.6348169,145.934609 C33.9679859,143.727055 34.2770704,141.518445 34.5996761,139.309834 C26.522493,141.444049 17.9357324,141.98109 9.8813662,139.534288 C9.31791549,138.960049 11.1941831,139.271368 11.4918592,139.184081 C4.07932394,134.116957 6.29298592,123.442288 6.94960563,115.753787 C11.0325634,89.4087616 12.4719296,60.2597519 28.2470704,37.7790552 C35.0716479,28.6047616 45.0770704,21.3410748 56.5740423,19.7067029 L56.8930027,19.6630145 C60.2547064,19.2146038 64.0012947,19.0701581 66.9405211,17.2406677 C70.2462702,14.6006261 71.6549763,9.72252824 75.1327636,9.67686276 C76.2811463,9.66178379 77.843364,11.1151389 79.5244648,12.1018967 C79.6499625,9.93119407 80.8193221,8.0993165 81.0775031,6.41625703 L81.0984028,6.2723246 C81.367809,4.31010979 80.9988476,2.54474154 83.2831268,0.670593346 Z M139.329946,70.9752595 C132.000919,65.8818221 113.068602,68.4410738 112.635195,68.7262859 C111.6809,69.3542077 111.269958,69.4097401 110.753831,70.2251295 C110.244254,70.2927616 109.735099,70.3629299 109.226366,70.4352117 C108.205732,70.7687225 108.96207,72.0245659 110.140944,71.5765033 C109.431877,74.6356503 111.518593,76.811223 112.349324,79.8355202 C112.619056,80.8174882 112.359059,82.583573 112.349324,83.5869065 C112.429886,84.8661886 113.843732,86.3772841 113.608092,87.6607331 C112.770352,92.2236155 108.224287,96.6746292 110.140944,101.099643 C111.410662,103.59886 115.229535,104.873263 117.768549,105.722891 C123.028901,107.742554 132.19458,105.646844 135.250988,101.099643 C136.881231,98.6742333 138.769943,92.5561327 139.741985,90.6584185 L139.957434,87.648033 C140.488759,80.1647916 140.961377,72.1090514 139.329946,70.9752595 Z" id="ðŸŽ¨-Background" fill="#FFFFFF"></path>
                        <path d="M73.855838,9.23558513 C74.3618239,8.78731115 75.1105563,9.35055969 74.789007,9.95607828 C74.0664718,11.3169628 73.3253451,12.606411 72.3556268,13.8094168 C71.767669,14.5387867 71.1378803,15.2286341 70.4996408,15.9108728 C72.1375986,17.3283992 73.5423169,19.0883131 74.8688662,20.7376908 C76.5651338,22.8471781 78.1688662,25.0460665 80.0730211,26.9763288 C81.9509294,28.8800013 84.0273658,30.2107338 86.5380303,31.0981128 L87.0451064,31.2743057 C89.5672627,32.1600914 92.2629231,33.3563141 93.6845704,35.7452524 C93.9649225,36.2163523 93.4004155,36.798411 92.9259085,36.5044227 C90.4555563,34.9742466 87.5529507,34.6665205 84.8639366,33.6554207 C82.2664014,32.678771 80.0020352,31.1756477 78.001331,29.2572211 C76.004007,27.3419648 74.3269648,25.1629432 72.577669,23.0299961 C70.8478099,20.9209315 68.9852746,19.119593 66.9391479,17.3351624 C63.7816423,19.4601599 60.1774267,20.384806 56.5125545,21.2929676 L56.1125282,21.3920313 C52.4432324,22.3008376 48.7935845,23.3563209 45.3511901,24.9389119 C42.3161197,26.3340352 39.3309085,28.0001096 36.8586549,30.2704344 C34.2342887,32.6798278 32.1917535,35.7570881 30.3222465,38.7665049 C26.1404155,45.4992798 23.2004155,52.8754051 20.6121761,60.3411429 C17.9202042,68.1065753 15.6685141,76.0275616 13.8507676,84.0425988 C12.9262606,88.119546 12.1754155,92.2254481 11.5583028,96.3600939 C11.2612606,98.3514364 10.9973873,100.347006 10.7656268,102.347014 C10.5182324,104.482708 10.4614014,106.679906 9.80647183,108.733386 C9.52569718,109.613448 8.86273944,109.978661 8.19914789,109.947593 L8.06436423,111.633908 C7.88563521,113.882242 7.71902113,116.13128 7.66273944,118.393573 C7.56937753,122.155186 7.61170932,125.90597 7.88218069,129.659612 L7.92048592,130.171491 C8.13302113,132.911014 8.6079507,135.989119 10.6671761,137.995045 C12.7997113,140.072618 16.0792183,140.725902 18.9535141,140.763311 C25.6479507,140.850599 32.0920352,137.686262 38.0159789,134.910176 C44.1169648,132.051241 50.0512606,128.877816 55.8433732,125.436188 C58.7930915,123.68346 61.7109085,121.872399 64.5915423,120.008501 C66.0051338,119.093566 67.4087958,118.163202 68.8018944,117.217832 C69.5998521,116.676352 70.3559789,116.082669 71.1683028,115.60227 C70.7702746,115.231562 70.5925986,114.648658 70.9259789,114.139726 C68.5777394,112.100618 67.6004155,108.4618 67.4861197,105.517479 C67.3937958,103.140845 67.7434437,100.770975 68.0193592,98.4167436 C68.1585845,97.229589 68.3305563,96.0445479 68.5090775,94.8626771 C68.5796408,94.3958043 68.6335141,93.8963836 68.7159085,93.4035147 C62.3751338,96.8893151 55.8566831,99.9936282 49.1656268,102.751538 C45.7359085,104.16526 42.2622465,105.436321 38.7406268,106.601072 L38.0268495,106.836013 C34.6901066,107.928669 31.2735282,108.960827 27.824007,109.58555 C27.6395704,109.618943 27.4897817,109.346513 27.6866831,109.259648 C31.0483732,107.775757 34.5264718,106.524141 37.9386549,105.15755 L38.4993592,104.92908 L38.4993592,104.92908 C38.4349225,104.925487 38.368162,104.916611 38.2984437,104.899914 C36.2973169,104.416767 34.3118239,103.67218 32.3491479,103.045315 C30.5275986,102.463468 28.4810493,102.098043 26.7784437,101.219671 C26.6474577,101.152039 26.7207676,100.969855 26.8483732,100.96119 C28.7620352,100.828462 30.8394296,101.386427 32.7156972,101.714654 L33.4205485,101.838167 C34.6013192,102.04645 35.8083028,102.270364 36.9833028,102.56238 C37.0257676,102.168634 37.2456972,101.773198 37.5585845,101.541346 C41.0016127,98.9905597 40.6519648,93.8386849 41.0202042,90.0396634 L41.2932653,87.2191883 C41.7735659,82.2830529 42.2816831,77.3475795 43.0536549,72.4483444 C43.0948521,72.1866928 43.4994296,72.2617221 43.5011197,72.5087906 C43.5409355,78.58186 43.082663,84.6269865 42.8529626,90.6905787 L42.8173941,91.6852909 C42.6904058,95.4267806 42.5908806,99.3118809 40.2353451,102.190826 C40.5647113,101.998286 41.0100634,101.998286 41.2768944,102.315734 C41.6047817,102.706098 41.7940775,103.144438 41.788162,103.574536 C43.9166831,102.681793 46.0359085,101.7658 48.1447817,100.831209 C54.924993,97.8262309 61.5630211,94.4634364 68.0254859,90.8248297 C68.7209789,90.4331977 69.3820352,90.7409237 69.7259789,91.2572524 L69.7756189,91.2501292 C69.7839131,91.2490098 69.7923169,91.2481644 69.8009789,91.247953 L69.8502042,91.2458395 C69.8521056,91.2458395 69.854007,91.2460509 69.8556972,91.2460509 C70.7654155,90.7459961 72.0047113,91.1021213 72.7853451,91.8314912 C72.8083732,91.8534716 72.8280211,91.8771429 72.8485141,91.9003914 C73.8368239,91.4565558 74.7596408,90.8573777 75.5971056,90.0979961 C77.3109085,88.5441487 78.7625282,86.6227632 80.0280211,84.6960939 C82.3585141,81.1475225 84.3380915,77.2014012 87.4861901,74.2803288 C90.044007,71.9070763 93.2151338,70.4295264 96.5419648,69.50191 C96.5280211,69.4046888 96.5652042,69.3011272 96.6323873,69.232227 C96.8033028,69.0570176 96.9252042,68.9963601 97.1459789,69.1026693 C97.1635141,69.1113346 97.1740775,69.1231703 97.1812606,69.1358513 L97.5058979,68.5809568 C97.6830975,68.2798668 97.8650537,67.9765803 97.9280915,67.8969159 C98.305838,67.4211663 98.6945704,66.9490098 99.0892183,66.4867867 C99.7583028,65.7041566 100.520768,64.9318826 101.403655,64.389135 C103.336754,63.201135 105.368937,63.8734403 107.356331,64.5227084 C108.557176,64.9151859 109.754007,65.3203444 110.952739,65.7187397 L111.076394,65.7591353 C111.970238,66.0464342 113.01619,66.2977315 113.415908,67.2451115 C113.574148,67.620047 113.598655,68.0091429 113.524923,68.3866145 C122.0145,66.2268258 131.443796,67.2191155 139.728232,69.7544736 C140.04619,69.8516947 140.363725,70.1133464 140.430697,70.457002 C141.379923,75.3267241 141.802669,80.3207202 141.373162,85.2735029 C141.002599,89.5486967 140.055697,93.7382935 138.271331,97.6522896 L138.169883,97.8732789 C136.492939,101.500579 133.835113,105.972047 129.776049,107.108947 C127.325134,107.795413 124.614359,107.390677 122.114641,107.264924 C119.685275,107.142552 117.202035,107.124798 114.795697,106.742677 C112.652599,106.402403 110.774852,105.441393 109.450415,103.698176 C108.30788,102.194207 107.70619,100.376595 107.213303,98.5684932 C106.987669,98.6403523 106.763514,98.7166497 106.542951,98.803092 C105.611894,99.1668258 104.823021,99.7539569 104.109782,100.444861 C102.603655,101.904023 101.435345,103.676196 99.8595,105.068571 C98.4330211,106.329065 96.8075282,107.309307 95.0639366,108.062982 C91.4509869,109.624683 87.5751261,110.248779 83.7534323,111.076447 L83.4868944,111.134536 C80.6098521,111.766051 77.6732324,112.541495 75.1337958,114.039969 C75.0841479,114.481057 74.8832324,114.896149 74.5612606,115.167945 C75.0091479,115.588744 75.1988662,116.255131 74.8052746,116.880305 C73.705865,118.625735 71.8121408,119.618852 70.1120619,120.735059 L70.0014718,120.808039 C68.3290775,121.917205 66.6421056,123.004391 64.9414014,124.069386 C61.484007,126.234881 57.9543592,128.281174 54.3748521,130.237432 C48.6175986,133.383804 42.7367535,136.351796 36.7494296,139.043977 C37.1087958,140.812661 36.9774847,142.636422 37.2475931,144.416916 L37.289007,144.670967 C37.4043944,145.33169 37.2485296,145.884581 36.7935504,146.316276 L36.7454155,146.360501 L36.7462606,146.354583 L36.7035845,146.393683 L36.6893203,146.405635 L36.6940775,146.401926 C36.6416303,146.449955 36.5875194,146.494656 36.5323686,146.532996 L36.4621056,146.578192 L36.4621056,146.578192 C36.0238897,146.844603 35.4597049,146.841535 35.011026,146.606356 L34.9597817,146.578192 L34.8735845,146.528736 C34.2807676,146.187616 33.8719648,145.342427 34.1178803,144.670967 C34.7223169,143.020744 34.9506972,141.259562 35.5088662,139.598348 L35.0660493,139.796384 L35.0660493,139.796384 L34.4824092,140.050864 C28.1701704,142.781455 21.15855,145.080902 14.2809085,143.219413 C11.2420352,142.396626 8.40175352,140.656368 6.88126056,137.819836 C5.38506338,135.028744 5.17358451,131.787898 5.09414789,128.683162 C4.99611972,124.85117 5.20147183,120.960634 5.70661268,117.161613 C6.04569718,114.61146 6.45576761,112.013119 7.08830282,109.489386 C6.7629507,109.20216 6.52379577,108.790239 6.46062676,108.280039 C6.16210563,105.869589 6.68457042,103.363609 7.00442958,100.965628 C7.31689437,98.6242896 7.66210563,96.2876008 8.05252817,93.9580978 C8.84076761,89.2536517 9.75661268,84.5591389 10.8228803,79.9098552 C12.7204859,71.6352798 15.226331,63.5078043 18.2432324,55.5745597 L18.5074309,54.8835238 C21.2952068,47.6323609 24.523032,40.535754 29.017669,34.1656204 C31.1677394,31.1179491 33.4405563,28.3547554 36.4785845,26.1586145 C39.3247817,24.100908 42.5352042,22.6193425 45.8483028,21.4869276 C49.164993,20.3536673 52.574007,19.5942857 56.0432324,19.1219178 C59.5665423,18.6421526 63.2854859,18.347953 66.5721761,16.902317 C66.1564014,16.1566732 66.5132324,15.1500117 67.2129507,14.6875773 C69.5677394,13.1311937 71.7452746,11.1064579 73.855838,9.23558513 Z M149.237324,76.9144509 C149.335986,76.7646035 149.570282,76.8592885 149.526972,77.0366114 C148.38169,81.73049 147.306549,86.4338795 146.604507,91.2173706 C145.337202,99.8509657 145.570318,108.597305 145.67392,117.294756 L145.679155,117.74458 C145.732394,122.429371 145.806338,127.114584 145.961197,131.797472 C146.039366,134.164173 146.194014,136.554122 146.10993,138.922091 C146.064085,140.206678 145.721831,141.421731 145.600563,142.690889 C145.494296,143.80069 145.588944,144.927609 145.641972,146.038889 C145.677465,146.77777 144.587324,146.746279 144.513169,146.038889 L144.418352,145.123921 C144.295172,143.966004 144.142923,142.815163 143.763592,141.706842 C143.307465,140.373856 143.088592,139.064752 142.930352,137.665191 C142.687975,135.520553 142.580187,133.354429 142.486642,131.194705 L142.422676,129.700877 C142.032047,120.675325 142.045739,111.60743 142.67814,102.591331 L142.724366,101.947414 C143.350563,93.4249245 144.437113,84.2166035 149.237324,76.9144509 Z M124.824317,23.2004712 C124.525162,23.0774654 124.629951,22.6249644 124.961218,22.703798 L125.563659,22.847558 C129.978005,23.9053049 134.312235,25.0513301 138.432486,27.019571 C142.555373,28.9889331 146.045937,31.929027 148.819458,35.5443851 C154.211007,42.5719937 156.4515,51.1126591 158.220232,59.6452932 C160.185866,69.1266787 161.975514,78.6427256 163.958261,88.1211523 L164.326452,89.8867172 C166.161102,98.7147357 167.893278,107.547758 169.169599,116.480346 L169.261282,117.128205 C170.548363,126.313807 171.322539,135.817479 169.91812,145.027007 C169.640303,146.849058 166.609458,146.395289 166.727979,144.595219 C167.070232,139.391141 167.315303,134.214326 167.078472,128.998624 C166.84143,123.781865 166.352345,118.587931 165.623261,113.416823 C165.009708,109.065058 164.095089,104.767463 163.28569,100.450288 L163.158824,99.7684556 C162.481077,96.0965401 161.782373,92.4282768 161.08521,88.75977 L160.043374,83.2672136 C158.481889,75.0429314 156.889859,66.8114419 155.090937,58.6388431 L154.984181,58.1579411 C153.223725,50.295259 150.62831,42.0590677 145.347697,35.8153362 C139.988894,29.4788431 132.317556,26.287665 124.824317,23.2004712 Z M105.352415,106.598811 C105.481289,106.311586 105.932134,106.343077 106.070725,106.598811 C106.613761,107.601133 106.674109,108.88054 106.776764,110.012063 L106.787556,110.128572 C106.91812,111.509324 107.033683,112.894725 107.104458,114.279915 C107.238613,116.908901 107.302838,119.534506 107.294599,122.166874 C107.286148,124.864549 107.231852,127.559054 107.0865,130.252713 L107.047055,130.974488 C106.914362,133.315329 106.691808,135.926324 105.579951,137.972705 C105.175796,138.71687 104.07657,138.498122 103.842486,137.745715 C103.075585,135.282216 103.469387,132.361355 103.666077,129.838255 L103.818811,127.869497 C103.970052,125.900522 104.114282,123.930803 104.228683,121.959539 C104.385444,119.262498 104.514739,116.563132 104.639176,113.864823 C104.679599,112.988423 104.723308,112.111742 104.769489,111.235343 L104.840514,109.921026 C104.901148,108.821582 104.896077,107.615195 105.352415,106.598811 Z M19.1240111,110.090215 L19.4635056,109.762141 C20.5056885,108.741851 21.8226901,107.170471 23.3633662,107.267925 C23.9777324,107.306813 24.3692113,107.817013 24.2418169,108.421686 C23.9697042,109.714305 22.6516056,110.38513 21.7028028,111.174312 C20.6633662,112.038524 19.6837183,112.962336 18.7059718,113.895025 C17.838554,114.722015 17.0043547,115.572551 16.1901682,116.449602 L15.8857606,116.779745 C15.5939122,117.098344 13.5156495,118.978875 13.7403561,119.466782 L13.7525915,119.488622 C13.8151268,119.582038 13.7109718,119.710539 13.6072394,119.67778 C12.7097746,119.394148 12.7657606,118.624622 13.1050563,117.84495 C13.7570282,116.346899 14.8987183,114.961076 15.8956901,113.681772 C16.8899683,112.405547 17.9661333,111.217184 19.1240111,110.090215 L19.1240111,110.090215 Z M108.6045,72.5221057 C107.910486,70.881182 105.353937,70.9156321 103.902528,71.0136986 C100.247599,71.2607671 96.2930915,72.1858474 93.0410493,73.8948258 C89.6695043,75.6665786 87.3984415,78.5054361 85.3663434,81.6445658 L85.2712606,81.7919295 C83.2906268,84.8719374 81.3830915,88.5179413 78.2816831,90.6356712 C76.7020352,91.7146145 74.8574577,92.6997182 72.940838,93.1264344 C72.8092183,93.357863 72.5960493,93.5411037 72.3165423,93.6076791 L72.1866107,93.6374237 C71.6407359,93.7579966 70.7926853,93.891425 70.0602042,93.8116321 C70.0650634,94.1700822 70.0612606,94.5257847 70.0703451,94.8654247 C70.0961197,95.8386928 70.1071056,96.8161879 70.1071056,97.79009 C70.1075282,99.8306771 69.9978803,101.87528 70.0830211,103.915656 C70.1584437,105.720376 70.4132324,107.606043 71.2794296,109.21928 C71.9147113,110.402841 72.7532324,111.186106 73.7654155,111.933863 C76.2554155,110.415734 79.0709789,109.490442 81.9285845,108.794677 C85.3845,107.953292 88.9230211,107.391734 92.3003451,106.250865 C93.925838,105.701566 95.4885845,104.982763 96.9045,104.006536 C98.4072465,102.969863 99.5550634,101.567342 100.736049,100.195468 L100.920644,99.9823254 C102.125897,98.599508 103.441006,97.2763181 105.144359,96.526638 C106.61119,95.8807515 108.5445,95.7657769 109.827106,94.7665127 C110.497669,94.2436321 110.553866,93.4848845 110.62443,92.7079609 C109.803021,92.8254716 108.933444,92.6371585 108.114782,92.5412055 L107.690622,92.4914003 C106.916493,92.3993882 106.160166,92.2982502 105.398092,92.1011742 C105.256542,92.0646106 105.256542,91.8511468 105.398092,91.8145832 C106.298725,91.5818865 107.191331,91.4827632 108.114782,91.3745519 L108.33168,91.3474922 C109.167093,91.2378884 110.045193,91.0724647 110.864641,91.256407 C111.011683,90.6967515 111.224007,90.1624579 111.521894,89.627319 C111.939993,88.875546 112.73119,88.0231703 112.838092,87.1450098 C112.869993,86.8827241 112.808937,86.5735186 112.685345,86.3416673 L112.642745,86.2626368 C112.590812,86.1692994 112.529265,86.0754364 112.439218,86.0172446 C112.429289,86.0288689 112.408162,86.042184 112.362317,86.0565558 C111.731683,86.255225 111.181542,85.9464423 110.88957,85.4704814 C109.650063,85.6243444 108.297317,85.5725636 107.134923,85.6239217 L105.959646,85.6807892 C104.703845,85.7383856 103.390991,85.7636024 102.210908,85.5097926 C102.04612,85.4744971 101.996261,85.2001644 102.161261,85.1295734 C103.612035,84.5088376 105.371894,84.3108023 106.925134,84.0723992 C107.792599,83.9390372 108.666401,83.837589 109.536401,83.7202896 C110.115697,83.64209 110.730486,83.512955 111.330697,83.4818865 C112.835556,81.6078434 112.024711,78.6514755 109.930415,77.8445401 C109.167528,78.179953 108.481542,77.9848767 107.648092,77.913229 C106.81612,77.8417926 105.982035,77.7933933 105.146683,77.7969863 C103.47281,77.8043836 101.699007,78.2448376 100.041401,78.0552564 C99.7718239,78.0241879 99.5212606,77.6653151 99.7893592,77.4463562 C101.058228,76.4105146 102.876679,76.0727702 104.487304,75.8520258 L104.82112,75.8073346 C105.36112,75.7365323 106.017739,75.633182 106.698866,75.5716791 C106.85288,75.2711389 107.129218,75.0439374 107.544359,74.9875068 C107.667739,74.9705988 107.791754,74.9606654 107.915556,74.9500978 L107.913655,74.9378395 L107.913655,74.9378395 C108.926049,74.889229 108.882106,73.1785597 108.6045,72.5221057 Z M39.2941479,104.525824 C39.2762606,104.55344 39.2566831,104.579742 39.2358537,104.605041 L39.2037254,104.642278 L39.3702042,104.574646 L39.2941479,104.525824 L39.2941479,104.525824 Z M126.27112,68.8553894 C122.009852,68.3973933 117.742458,68.4939804 113.468514,68.6169863 C113.126683,69.7354521 111.936824,70.6886419 110.783937,70.7245714 C111.686894,72.0994051 111.780063,73.9601331 111.146894,75.4182387 C112.49119,75.953589 113.649359,76.9152329 114.352458,78.2847828 C115.327458,80.1833425 115.199852,82.296 114.236261,84.0506301 C115.058725,84.7954286 115.544007,86.0049863 115.495415,87.1450098 C115.44112,88.4162818 114.683725,89.5021996 114.054359,90.5547241 C113.374289,91.6930568 113.351472,92.6952798 113.142528,93.9701448 C112.836824,95.8359452 111.578937,96.9675147 109.960415,97.6742701 L110.046459,98.0128436 C110.463736,99.6377253 110.982919,101.352234 112.175556,102.540399 C113.709755,104.068958 116.089827,104.054739 118.11684,104.151603 L118.214641,104.156384 C120.070754,104.249209 121.926055,104.357995 123.781519,104.463156 L125.173162,104.541041 C127.3095,104.658552 129.36112,104.672712 131.105134,103.259836 C133.952387,100.953581 135.904289,97.1368063 137.139782,93.7579491 C139.73288,86.6658787 139.763937,78.8829041 138.573655,71.4966341 C134.581754,70.2095108 130.439852,69.3034521 126.27112,68.8553894 Z M90.8333482,80.621549 L90.8646761,80.6238387 C91.7420704,80.7240188 92.3448169,81.4347898 92.5594648,82.2778661 C92.8712958,83.5032751 92.718338,84.6111734 93.4685493,85.7173808 C94.2403099,86.8548681 94.7148169,87.7655765 94.827,89.1708446 C94.8730563,89.749099 94.8519296,90.325874 94.9805915,90.8918701 L95.0738854,91.2884195 C95.1729576,91.7112598 95.2540215,92.1185347 95.2047465,92.5725276 C95.1597465,92.9865628 94.9581972,93.3090834 94.5430563,93.4418114 C93.1903099,93.8746568 92.1458028,92.8775061 91.7963662,91.6163789 C91.4944648,90.5270795 91.8975634,89.2289659 91.4716479,88.2060305 C91.235662,87.6389777 90.8004507,87.1647076 90.5545352,86.5938505 C90.3109437,86.0280658 90.1886197,85.436919 90.1495352,84.8218896 C90.0753803,83.6586176 91.103831,82.2609581 90.5300282,81.2069542 C90.4078426,80.9820775 90.5462202,80.6147512 90.8333482,80.621549 Z M72.8644648,68.6172611 C73.7805211,68.4310614 74.8197465,68.0043452 75.7231268,68.358991 C76.187493,68.5415977 76.4169296,69.1080164 76.0246056,69.501762 C75.3434427,70.1848341 74.3534592,70.2228989 73.4359943,70.3839704 L73.3552394,70.3985213 C72.2703803,70.5993041 71.1836197,70.7897307 70.0953803,70.9702239 C68.0479859,71.3094411 65.9957324,71.6093472 63.9362958,71.8642356 C61.8210845,72.1260986 59.6999577,72.359218 57.5758732,72.5346387 L56.7535736,72.6021311 C54.959323,72.7456828 53.0923521,72.8539609 51.3318592,72.5790223 C51.0760141,72.5390771 51.1172113,72.1664665 51.3318592,72.1011593 C53.2605211,71.5171984 55.3761549,71.3605879 57.3700986,71.1135194 C59.4899577,70.8503883 61.6062254,70.5724626 63.717,70.2427562 C65.8243944,69.9134724 67.9290423,69.5600947 70.0258732,69.1695194 C70.9736197,68.9932532 71.9198873,68.8091671 72.8644648,68.6172611 Z M105.918232,66.7423092 C105.114359,66.4576204 104.229993,66.0357652 103.358937,66.1769472 C101.856824,66.4204227 100.519923,67.8844462 99.3309085,68.8486262 L99.9279265,68.7325369 C102.982715,68.1451814 107.028061,67.5124432 109.592387,69.4554129 C109.598937,69.4442114 109.604007,69.4330098 109.611401,69.4218082 C109.818444,69.107319 110.058232,68.8619413 110.319993,68.5928924 C110.344993,68.5692916 110.369195,68.5449159 110.392998,68.5201409 L110.534218,68.3697065 L110.21121,68.2577667 C109.519359,68.0131205 108.699736,67.6971993 108.570167,67.6510861 L108.56119,67.6479452 C107.679148,67.3490959 106.796049,67.0536282 105.918232,66.7423092 Z M80.8192817,2.68746693 C80.6935775,1.07000313 83.2099859,1.0833182 83.3346338,2.68746693 C83.6065352,6.18954129 82.8187183,9.65843366 81.1230845,12.7287194 C81.1106197,12.7511225 81.0968873,12.7709894 81.0837887,12.7921245 C82.1443521,13.3441714 83.2169577,13.8738153 84.3134366,14.3472399 C85.7160423,14.9529699 87.1450563,15.5045941 88.5996338,15.9725237 C89.9154085,16.3960697 91.5364648,16.5632477 92.642662,17.4445785 C94.9752676,19.3027703 94.0989296,23.1590677 93.6501972,25.6587076 L93.5801903,26.0533057 C93.3567593,27.3395897 93.1951612,28.6592625 93.7372394,29.8937448 C94.3161127,31.2123593 95.4867465,32.1904885 96.5310423,33.1339562 L96.7419632,33.325275 C97.6671122,34.1684015 98.7242264,35.1929307 99.4028028,36.3359131 C100.022239,35.0547076 100.866676,34.0076783 101.759493,32.8289777 C102.396465,31.9878035 101.943085,31.7105119 101.485479,30.888782 C101.044986,30.0979092 100.829915,29.2548329 100.967662,28.3525785 C101.221817,26.6862928 102.553014,25.4826528 103.878085,24.5782849 C105.442944,23.5107546 107.189493,22.7198818 108.807169,21.7267468 C112.131254,19.686371 115.368507,17.3534865 118.285056,14.7625432 C118.365549,14.6908955 118.504986,14.784735 118.440549,14.8825902 C116.136676,18.3882575 113.435197,21.4175413 110.115127,23.988829 C108.76889,25.0314464 107.354693,25.8962943 105.931025,26.8054104 L105.521725,27.0681614 C104.950103,27.4385983 104.237108,27.9336895 103.978648,28.5643515 C103.718577,29.1986137 104.273155,29.6775335 104.571676,30.2029503 C105.519627,31.8714648 105.062278,33.4282574 103.938452,34.8432468 L103.886113,34.9084532 C102.769352,36.285189 101.923014,37.5655491 101.518225,39.3244063 C100.648472,43.1026688 101.859928,47.0382361 103.128072,50.585253 L103.178155,50.7250638 C103.864141,52.6369386 104.593225,54.5348642 105.189211,56.4773847 L105.353197,57.0144149 C105.8932,58.8017349 106.335396,60.5645536 105.729634,62.4019562 C105.523648,63.026919 104.671606,63.1746528 104.317732,62.586465 C103.069352,60.5122732 102.758155,58.0162262 101.97562,55.7357566 C101.212944,53.5131969 100.337239,51.3307937 99.6005493,49.099146 C98.6519577,46.2258387 98.0170986,43.1329386 98.3616761,40.1190834 C98.3515352,40.1015413 98.340338,40.085056 98.3318873,40.0664571 L98.0904134,39.5380555 C97.4319458,38.1072722 96.7959661,36.8577256 95.598507,35.7172908 C94.349493,34.5276 92.9937887,33.4744415 92.0109718,32.0343006 C89.8761897,28.9060631 91.1964559,25.4261833 91.4543141,22.0057235 L91.4838196,21.5862875 C91.5306603,20.8761094 91.5563297,19.9109564 91.0925915,19.4194356 C90.5709718,18.8661205 89.3477324,18.7249386 88.6556197,18.4799836 C86.8670282,17.8467781 85.1044225,17.1089542 83.4256901,16.2229738 C81.827662,15.3796861 80.2797042,14.448054 78.8384366,13.3566411 L78.1079262,12.8068698 C76.955331,11.9368761 75.7601558,10.9868324 74.987662,9.80257456 C74.898507,9.66625362 75.0499859,9.44623796 75.2113944,9.51154521 C76.5009718,10.0350599 77.6792113,10.86778 78.8857606,11.5922888 C78.9045634,11.5481166 78.9263239,11.5035217 78.9510423,11.4587155 C80.4438592,8.75596791 81.0578028,5.76155695 80.8192817,2.68746693 Z M122.012958,21.2049652 C122.526761,19.7954701 124.868451,19.9043155 124.77507,21.5790552 C124.703473,22.8656683 124.157425,24.0269731 123.65815,25.1951806 L123.604859,25.3203781 C123.089366,26.5375444 122.494014,27.6803155 121.78162,28.7958223 C120.420423,30.9283468 118.825986,32.9074309 117.122958,34.7751335 C115.579014,36.468472 113.552535,37.5038771 111.217394,37.331838 C110.233521,37.2593448 109.240352,37.0088947 108.378169,36.5172939 C107.354155,35.9331217 106.242042,34.1791256 104.935563,34.6039397 C104.809225,34.6449417 104.691338,34.4597988 104.800563,34.3720885 C106.308803,33.1570356 108.020704,35.0410121 109.464718,35.4949926 C111.640563,36.1787108 113.873451,35.4227108 115.273944,33.6630082 C116.736127,31.8257401 118.081901,29.7686677 119.310845,27.7682372 C119.93493,26.7524877 120.504296,25.6982724 120.996127,24.6117205 C121.492394,23.5150239 121.605211,22.3232196 122.012958,21.2049652 Z M118.505641,12.5306419 C118.442261,12.3359883 118.683951,12.1508454 118.854866,12.2620157 C119.845923,12.9074795 120.704725,13.7602779 121.61888,14.5078239 C122.633176,15.3371624 123.654866,16.149593 124.692401,16.9495538 C126.204866,18.1159961 124.450711,20.2633151 123.119303,18.9890841 C121.297331,17.2460783 119.301908,14.9668767 118.505641,12.5306419 Z M113.064423,5.70836008 C113.467046,4.15519538 115.848367,4.79569012 115.501342,6.33070698 L115.489986,6.37749511 C114.83272,8.91300092 115.768819,11.4943027 117.767177,13.138052 L117.840761,13.1977691 C119.104986,14.2099256 117.313859,15.9793503 116.062099,14.9769159 C113.329352,12.7890176 112.192521,9.0724227 113.064423,5.70836008 Z" id="ðŸ–-Ink" fill="#000000"></path>
                    </g>
                    <g id="head/hat-beanie" transform="translate(78.591549, 38.043053)" fill-rule="evenodd">
                        <path d="M51.7185372,12.4075623 C61.1773122,12.4075623 72.5261313,16.9948296 73.4910373,17.0865749 L73.5170858,17.0879697 C74.0247475,17.0879697 76.0083955,18.5998047 79.4680297,21.6234749 L75.7208552,28.9349282 L76.0240988,29.2246001 C77.4752121,30.6164137 78.714028,31.8850112 79.6918691,32.8850476 C87.6760202,41.0504247 89.1110361,73.1100521 87.2294388,84.2903025 C85.3478415,95.4705529 81.862756,106.410634 65.6377222,106.410634 C49.4126883,106.410634 31.3619694,96.6510448 28.581369,93.6117924 C26.7276354,91.5856241 24.6454088,90.614914 22.3346891,90.6996621 C22.2397193,90.5797811 22.1455157,90.4602512 22.0520783,90.3410724 L21.7120996,90.2928919 C18.514111,89.8295513 16.2226766,89.2059005 14.8378832,88.4221476 C12.1329919,86.8912577 9.15998878,78.8431922 9.15998878,77.0703055 C9.15998878,75.3151477 4.72067039,62.5469812 4.63188402,61.1958146 L4.63053425,61.1583879 C4.63053425,60.0288611 -1.16898899,54.8365017 -1.16898899,53.1875104 C-1.16898899,51.5385191 -2.33797797,51.6385642 -1.16898899,45.8277744 L-0.829364528,44.1207341 C0.414623318,37.9339543 2.84944751,27.6895419 12.1329919,23.2380361 C22.3346891,18.3462714 42.1642191,12.4075623 51.7185372,12.4075623 Z" id="Path" fill="#FFFFFF"></path>
                        <path d="M10.5582887,23.008227 C15.6461915,17.6057331 44.5310604,9.24935967 59.1447173,11.0207121 L59.5831479,11.0775029 C60.7493451,11.2254481 61.8986408,11.4494795 63.0329366,11.7538239 C66.6992746,12.6104266 70.4864577,13.9074834 73.5158239,16.0740352 C76.0449085,17.8464188 84.023007,20.7408611 81.6715986,25.3774638 C82.5435,27.0300117 82.8688521,29.0716556 82.2796268,30.6992642 C82.2054718,31.261456 82.0322324,31.7792642 81.8106127,32.3160939 C83.6733592,35.0659726 85.1482183,38.1757808 86.3420915,41.1336282 C88.4283592,48.5775969 89.7265986,56.3244305 89.9167394,63.9193033 C90.5492746,78.3486106 88.9677254,95.5844384 76.405331,104.915131 C68.8163873,110.827656 56.9287817,111.026325 48.4005423,103.695429 C47.9165282,103.122458 45.6405423,101.576219 46.4000493,101.305057 C46.6261056,101.543883 46.8585,101.776368 47.0951197,102.004626 C47.0843451,101.979264 47.0822324,101.953902 47.086669,101.926427 L46.8641141,101.724804 C46.4450174,101.336936 45.9020777,100.774384 46.5204718,100.88447 C46.5477254,100.916172 46.5775141,100.943648 46.6068803,100.97535 C46.737853,101.053946 46.8367989,101.122085 46.9137866,101.18216 L46.9533888,101.213866 L46.9411537,101.201134 C46.5849376,100.82114 46.3713786,100.433564 46.9039807,100.681094 L46.9744859,100.715389 C47.2113169,100.964783 47.4519507,101.203609 47.6970211,101.436094 C47.693007,101.408618 47.6970211,101.381143 47.7120211,101.351554 L47.4835246,101.13073 C47.2604763,100.912076 47.2945191,100.911143 47.4035704,100.734411 C46.9294859,100.069714 47.8144859,100.464517 47.8765986,100.723843 C48.430331,100.592806 48.9164577,101.63265 49.2730775,101.75946 C64.906669,113.783178 87.5940634,103.114427 87.226669,69.6101213 L87.2210589,68.9545949 C87.113608,58.2413582 86.2123986,47.2301458 81.7829366,37.5322192 C81.352162,36.5980509 80.8702606,35.6892446 80.3401901,34.8100274 C79.9746972,34.1506145 79.5838521,33.5081096 79.1634296,32.8825127 C77.9864577,32.7874051 76.8244859,32.5718278 75.6796268,32.2378943 C75.2864577,32.1385597 74.8977254,32.0286575 74.5092042,31.8997339 C68.830331,32.2095734 63.278007,32.5466771 57.5832887,32.8662387 L55.8045153,32.9770686 C50.9804102,33.2873268 45.9913648,33.7842578 42.0984296,36.7692446 C38.2787113,39.4867867 38.2613873,44.8455734 34.9915986,47.8292055 C30.3289225,50.9950215 30.2949085,53.8497299 29.3970211,58.5150763 C29.4635704,62.0319452 31.9011761,67.1417613 27.428007,68.6218474 C28.1826549,69.6982544 27.1307535,69.1810802 27.0479366,68.8036086 C27.0394859,68.8057221 27.0310352,68.8078356 27.0246972,68.8078356 C27.697162,70.0583953 26.7086408,69.2709041 26.6211761,68.8691272 C26.5683592,68.8543327 26.5155423,68.8162896 26.4627254,68.7634521 C27.1402606,69.859092 26.0450493,69.0918904 26.1099085,68.8923757 C24.8006831,66.8792642 22.1061761,66.5666771 20.2068803,67.1001252 C20.1836408,67.1719843 20.0993451,67.1783249 20.0465282,67.1402818 C11.9704014,68.8911076 14.0541338,85.6165245 22.330331,83.9996947 C22.6846268,83.9274129 22.6761761,84.0975499 22.7465282,84.1138239 C22.555331,83.6116556 23.0942746,83.8160313 23.0885704,83.9214951 L23.1214093,83.9199 C23.1474306,83.9176047 23.1367864,83.9147554 23.1561761,83.9214951 C22.9713169,82.894544 24.0115986,84.3824501 23.9294155,84.4435303 C23.9613169,84.4245088 23.9972324,84.4139413 24.0289225,84.4097143 L23.9931125,84.3122287 C23.8204664,83.8521113 23.835267,84.0433546 23.8364577,83.7798904 C23.7067394,83.4541996 23.6972324,83.5966497 23.7276549,83.384454 C24.1835704,83.0310763 24.3181479,84.103045 24.4702606,84.181456 C24.2095563,83.8179335 24.4168099,83.5209863 24.6627254,83.7183875 C26.5267394,87.6406262 28.9345563,91.3259413 32.0463169,94.2290489 C32.386669,94.4974638 32.7310352,94.7616517 33.0878662,95.011045 C34.4114577,96.1643836 36.4417394,96.9060117 37.6808239,97.9276791 C37.6808239,97.9445871 37.6725845,97.9657221 37.6599085,97.9868571 L37.6882711,98.0124834 L37.6882711,98.0124834 L37.7169507,98.0396947 L38.1479366,98.246818 C38.2746972,98.3546067 38.3887817,98.4750763 38.4899789,98.608227 C38.5979366,98.7329237 38.6927958,98.8703014 38.7732887,99.0161331 C38.8134296,99.1936673 38.7246972,99.2676399 38.5556831,99.1915538 C38.4815282,99.1661918 38.4077958,99.1366027 38.3338521,99.1091272 C38.3380775,99.1154677 38.3399789,99.1196947 38.3444155,99.1239217 C38.3686585,99.1606061 38.5327713,99.5412065 38.3436663,99.4792782 L38.3211761,99.4705362 C38.2174437,99.4324932 38.1141338,99.3902231 38.0127254,99.3500665 C38.1331479,99.5001252 38.2427958,99.662865 38.3399789,99.8002427 C38.4437113,99.9080313 38.5068803,100.034841 38.5324437,100.17856 C38.528007,100.258873 38.4838521,100.292689 38.4035704,100.282121 C38.2810352,100.241965 38.1606127,100.199695 38.0399789,100.155311 L38.0742856,100.220782 C38.1595165,100.388494 38.2806468,100.669779 38.0655423,100.575898 C37.8815282,100.518834 37.7042746,100.453315 37.5268099,100.381456 C37.5118099,100.411045 37.4824437,100.421613 37.4232887,100.394137 C36.8592042,100.193354 36.3141338,99.9481879 35.7923028,99.658638 C35.3338521,99.3247045 34.8709648,98.9971115 34.4106127,98.6652916 C33.9773028,98.4053307 33.558993,98.1157808 33.1599085,97.7903014 C30.4882183,96.0639922 28.1492746,93.8710215 26.2937113,91.4286575 C23.1904014,94.1172446 16.9856831,91.5487045 13.1475845,89.4440783 C9.75272535,87.5630607 8.41835915,84.0850802 8.07335915,80.3353033 C7.35610563,75.2869902 3.23216197,73.5589902 3.51906338,62.4821213 C3.51272535,62.4842348 3.50617606,62.4842348 3.49772535,62.4842348 C3.34772535,62.4398513 3.20216197,62.3806732 3.06483803,62.3045871 C2.92328873,62.236955 2.79019014,62.1566419 2.66533099,62.0594207 L2.51110563,61.8459569 L2.51110563,61.8459569 C2.43103521,61.8015734 2.35920423,61.7550763 2.30427465,61.7085793 L2.27578788,61.7453318 C2.18561268,61.8541923 2.24622887,61.6904031 2.25145775,61.6578552 L1.98353948,61.2933606 C1.34828543,60.4256995 0.65134331,59.4521507 0.0836408451,58.673589 L0.0657588593,58.7052238 C0.052916499,58.7291008 0.0461257545,58.7463539 0.0521619718,58.7539022 C-1.29889437,56.8120157 -2.56945775,54.4664501 -2.92248592,52.1957025 C-3.3393169,50.4465675 -3.17642958,48.6441722 -2.81283803,47.0239609 C-1.25389437,41.3502622 3.8528662,28.5111546 10.5582887,23.008227 Z M47.2233139,101.472664 L47.1386515,101.397234 L47.2130932,101.49054 C47.2521032,101.53876 47.2920401,101.582099 47.3570915,101.626309 C47.3528662,101.611515 47.3528662,101.59672 47.3547676,101.579812 C47.3116263,101.546867 47.2675152,101.510839 47.2233139,101.472664 Z M59.0801197,13.8715538 C49.1699789,13.0191781 39.4227254,15.203272 29.9659648,17.8470528 L29.3135977,18.0346301 C23.9363843,19.569572 18.250545,20.9507731 13.7063873,24.2361722 C7.35758451,29.1008219 4.0791338,36.8396243 1.21814789,43.9847436 C-1.28009155,49.2934403 -0.00297887324,55.2795147 3.76180986,58.9863875 C4.1535,55.3027632 4.8213169,51.7269276 5.86497887,48.1798356 C6.08279577,47.6256751 5.91800704,47.4441252 6.38744366,47.3718434 C7.09645775,56.9307945 3.60441549,63.9932759 10.5149789,75.3220744 C13.5135,80.667546 10.0423732,84.5787945 18.5099789,87.3916556 L18.7391283,87.4792497 C20.50323,88.1451832 22.42975,88.6708356 24.1575845,88.2985597 L24.0027873,88.0466646 C23.8449167,87.7872612 23.7970101,87.6613386 24.0265986,87.5503796 C24.0204718,87.5376986 24.0120211,87.5250176 24.0033592,87.5102231 C23.8176549,87.1593816 23.6380775,86.8043131 23.4667394,86.4450176 C23.3972324,86.4682661 23.3275141,86.4851742 23.2554718,86.5041957 C23.302162,86.5908493 23.3082887,86.6775029 23.1775141,86.707092 C22.7119648,86.8668728 22.2339009,86.9309166 21.7445249,86.9009418 L21.6394859,86.8930802 C21.0865986,86.8592642 20.7382183,86.7584501 20.4265986,86.6648219 C20.3232887,86.6479139 20.2197676,86.6310059 20.1181479,86.6098708 C19.1156831,86.3875303 18.0544859,85.8219569 17.3676549,85.261456 C9.5385,80.812955 10.3476549,65.6699178 19.9979366,64.2384423 C20.1958944,54.7040078 24.7290634,38.6185597 32.2523028,29.5332446 C39.0525845,21.1762427 57.6175141,17.5541213 70.5335704,18.8313112 C70.7218099,18.8936595 70.9100493,18.9566419 71.0982887,19.0202583 C73.0909648,19.1973699 74.9900493,20.0854638 76.9842042,20.4980196 C75.5524437,19.4245714 73.9282183,18.7095734 72.2551901,18.1019413 C68.9218099,16.0621996 65.1004014,14.9585284 61.4085,14.1801252 C60.6437113,13.9920235 59.8683592,13.8884618 59.0801197,13.8715538 Z M19.5562394,71.8977558 C20.0751127,71.6158145 20.0157465,71.8880337 20.1351127,71.8089886 C23.8673662,71.5044329 27.8918028,74.7733879 29.9780704,77.4985386 C29.8132817,77.6697323 29.367507,77.1624916 29.289338,77.0821785 C29.2787746,77.092746 29.2660986,77.1012 29.2534225,77.105427 L29.3115156,77.1874494 C30.1571007,78.4013886 28.4808213,76.9729193 28.3238451,76.6784994 C28.2963803,76.6932939 28.2689155,76.7017479 28.2372254,76.6954074 C28.3701127,76.8258106 28.7759577,77.1658732 28.8456761,77.4076579 L28.9532735,77.4972352 C29.9678658,78.3664083 29.8836617,79.0202421 28.7318028,77.785975 C28.7590563,77.8430395 28.7696197,77.8958771 28.7506056,77.9381472 L28.7902669,77.9645876 C29.3566853,78.3605602 29.8225102,79.4643749 28.6386338,78.3312587 C28.7618028,79.1589065 27.4654648,77.5591961 27.4238451,77.5703977 C25.1806056,75.808793 21.8778592,74.0955875 19.0639859,73.865427 L18.9671387,73.8542957 C18.4507899,73.7879265 18.206662,73.6346627 18.3879296,73.2968947 C17.7520141,73.1455679 17.9009577,72.8323468 18.2020141,72.8424916 C17.753493,72.5474466 18.1572254,72.2652939 18.417507,72.3754074 C18.2385634,71.879791 18.9562394,72.2099202 19.0217324,72.1408086 C19.3941972,71.5661472 19.4945493,72.0454896 19.5562394,71.8977558 Z M11.7330211,41.1779906 C13.5256268,40.5211139 18.8206268,42.487517 18.3970352,45.0917753 C18.1447817,45.6896853 17.3136549,46.0322841 16.7295,45.6947577 L15.9670715,45.1824955 C14.6402471,44.2935638 13.4435993,43.5140899 12.0190775,42.7388125 C11.2437254,42.3539436 10.9099225,41.5368634 11.7330211,41.1779906 Z M21.9319437,37.3079131 L21.2396325,36.8572074 C17.5035897,34.4111231 12.2220634,30.7047213 21.5886338,34.5394356 C22.656169,34.9974317 24.0746197,35.2683828 24.6570845,36.2854004 C25.5720845,38.1598661 23.1640563,38.2858309 21.9319437,37.3079131 Z M22.3517746,26.3327037 C22.0519859,25.1945824 25.782338,26.5301049 26.8682535,26.8822145 L27.0336531,26.944708 C28.0899945,27.3384701 29.3008732,27.7037542 29.9326901,28.6157096 C30.6729718,29.87578 29.174662,30.1367977 28.2465634,29.5676313 C26.3436761,28.3236235 24.2574085,27.3850168 22.3517746,26.3327037 Z M31.8377535,21.0310027 C29.7380472,18.7371398 35.3574566,20.9345822 36.199214,21.5445568 L36.2232465,21.5625487 C36.8513451,22.0049049 36.7239507,22.957672 36.1338803,23.2374998 C34.4549366,23.2694137 33.2194437,21.8694294 31.8377535,21.0310027 Z M41.3925423,18.5177941 C38.0545141,16.1179115 42.4516268,17.2594145 43.9788803,18.1999233 C45.0197958,19.1182403 43.9476127,20.6684947 41.3925423,18.5177941 Z" id="ðŸ–-Ink" fill="#000000"></path>
                    </g>
                    <g id="face/Smile" transform="translate(112.183099, 77.354207)" fill="#000000" fill-rule="evenodd">
                        <path d="M30.968993,50.9198978 C29.548794,50.3403012 28.2816173,49.3734958 27.3551889,48.1384646 C27.0331038,47.7091169 26.9495926,47.2557326 27.017159,46.8410547 C27.0931327,46.3747786 27.3688808,45.9521824 27.7449394,45.6687178 C28.1221628,45.3843752 28.5940214,45.2441445 29.0502103,45.3156301 C29.4466117,45.3777469 29.8412104,45.5948709 30.1535058,46.0451781 L30.2187521,46.1352289 C30.7695298,46.8806513 31.4872438,47.4922614 32.3050288,47.8864795 C33.0932406,48.2664417 33.9747757,48.4437847 34.8870208,48.3406561 C36.6244504,48.1443157 37.8219743,47.2043274 39.0948115,45.9278391 C39.2525834,45.7666792 39.4104563,45.6004672 39.5690946,45.4315797 C39.6692778,45.278484 39.8083069,45.1800892 39.962667,45.1284632 C40.1340565,45.0711416 40.327938,45.0743848 40.5055187,45.1363808 C40.6767961,45.1961763 40.8299095,45.309486 40.9325762,45.4602937 C41.0301525,45.6036243 41.0854754,45.7806897 41.0675245,45.9843589 C40.9510195,47.3072301 40.2596776,48.4878363 39.2776553,49.4148615 C38.1869942,50.4444414 36.7412431,51.1567117 35.3801317,51.4065272 C33.8805866,51.6817086 32.3525901,51.4845569 30.968993,50.9198978 L30.968993,50.9198978 Z M36.0875289,30.5120405 C37.6828906,31.482148 40.1137318,33.7442494 38.3974899,36.149264 C36.3773089,38.2698449 33.4687045,35.8384541 32.0353946,34.7388307 C30.7063626,33.8866164 29.2131206,36.0784478 30.4461973,37.0735516 C40.8033244,44.7445605 45.006466,30.7657101 36.8944406,29.3714319 C36.0012775,29.2177885 35.6695544,30.2119271 36.0875289,30.5120405 Z M17.5274577,21.5886716 C17.7037243,19.3998697 21.0359789,18.9028321 21.3674577,21.0687499 C21.6642887,23.0089456 21.3148521,24.7912626 20.4412606,26.5380728 C19.6065423,28.2068947 17.5085456,27.4283107 17.3498837,25.9087021 C17.1372039,23.8717299 17.4178099,22.9502317 17.5274577,21.5886716 Z M42.8930282,20.6196517 C43.3576056,20.0109628 44.0283803,19.5954481 44.8320423,19.8302583 C47.3429577,20.5642779 46.6028873,24.1303914 45.7210563,25.8662114 C45.2419014,26.8088337 43.6930986,27.0478708 42.993169,26.2178982 C41.8523239,24.864411 41.3059859,22.1614521 42.756338,20.8282544 C42.7956338,20.7593542 42.8393662,20.68982 42.8930282,20.6196517 Z M20.4058944,12.0111429 L20.802522,11.9416942 C22.0295218,11.7294045 23.5551549,11.5254176 24.4231479,12.5122544 C24.8835,13.0355577 25.0419507,14.0081918 24.4231479,14.509092 C23.3346972,15.3904227 22.1313169,15.0488806 20.8269507,15.1234873 C19.7520211,15.1852016 18.7189225,15.3631585 17.6835,15.6592603 C15.4119507,16.3087397 13.5610352,17.4944149 11.6209648,18.7963327 C11.3663873,18.9671037 11.1065282,18.6414129 11.228007,18.4032211 C12.3479366,16.208771 14.5182887,14.4061644 16.6922324,13.3073542 C17.8525141,12.7208571 19.1222324,12.2343288 20.4058944,12.0111429 Z M40.6041287,11.0281289 L40.9077055,11.0902829 C44.2113469,11.7811043 48.5035506,13.1610768 50.0679842,16.4073021 C50.1275964,16.8663298 50.0646105,16.9647086 50.0133917,17.0289838 L49.9963385,17.0503723 C49.9541341,17.1052595 49.9204583,17.1809212 49.7215736,17.2433957 C49.6663832,17.2302408 49.6106433,17.216308 49.5543131,17.2015401 C48.8372041,17.0135386 48.2698321,16.7545401 47.720556,16.4857982 L47.1250012,16.192275 C46.4340388,15.8533498 45.7369757,15.5267598 44.9982488,15.2856588 C43.4217423,14.7712438 41.8001698,14.4088706 40.1534741,14.2153715 C39.7965654,14.1734678 39.4528848,14.0529641 39.1817455,13.8464404 C38.92438,13.6504079 38.7277692,13.3789964 38.6381257,13.0182314 C38.5219478,12.5513438 38.5553348,12.1978716 38.8057421,11.7766707 C38.9940329,11.4603578 39.263447,11.2411116 39.5728025,11.115213 C39.888177,10.9868648 40.2472278,10.9566068 40.6041287,11.0281289 Z" id="ðŸ–-Ink"></path>
                    </g>
                    <g id="facial-hair/*-None" transform="translate(104.577451, 109.479380)"></g>
                    <g id="accessories/*-None" transform="translate(88.521127, 88.978474)"></g>
                </g>
            </g>
        </g>
    </g>
</svg>